<svg fill="#000000" xmlns="http://www.w3.org/2000/svg"  viewBox="0 0 50 50" width="50px" height="50px"><path d="M 25 4 C 21.079241 4 17.954771 5.2898551 15.732422 7.2128906 A 1.0001 1.0001 0 0 0 15.326172 7.625 C 13.769589 9.141988 12.370954 11.251479 11.671875 13.322266 C 10.684374 13.813246 10 14.822225 10 16 C 10 16.67977 10.234231 17.299701 10.615234 17.802734 C 10.535734 18.257546 10.456003 18.711803 10.394531 19.169922 C 9.11977 19.408651 7.9639469 19.631403 7.3769531 19.771484 C 6.9239531 19.879484 6.8333281 19.994891 7.3613281 20.087891 C 7.9303213 20.188406 9.0307098 20.307111 10.255859 20.427734 C 10.077604 22.185205 10 23.939008 10 25.609375 L 10 25.703125 C 7.998366 27.848853 6.91215 30.431705 6.3964844 32.726562 C 5.8556292 35.133522 5.8582993 37.128179 6.2871094 38.394531 C 6.401721 38.733011 6.5766603 39.106976 6.9140625 39.447266 C 7.2514647 39.787555 7.8240603 40.068114 8.4277344 40.019531 C 8.987444 39.974485 9.4936066 39.742882 10 39.326172 L 10 43 A 1.0001 1.0001 0 0 0 11 44 L 26.832031 44 A 1.0001 1.0001 0 0 0 27.158203 44 L 38 44 A 1.0001 1.0001 0 0 0 39 43 L 39 25.541016 C 39 20.810837 38.252516 15.553982 36.142578 11.355469 C 34.03264 7.1569551 30.376567 4 25 4 z M 25 6 C 29.623433 6 32.46736 8.49292 34.357422 12.253906 C 36.247484 16.014893 37 21.027194 37 25.541016 L 37 42 L 28.023438 42 C 28.043991 41.121476 28.079347 40.214471 28.125 39.369141 C 28.654367 39.178463 29.205323 38.936311 29.757812 38.611328 C 32.133933 37.21361 34.469511 34.345906 34.994141 29.099609 A 1.0001 1.0001 0 1 0 33.005859 28.900391 C 32.530489 33.654094 30.616067 35.78639 28.742188 36.888672 C 28.148508 37.237895 27.560944 37.468576 27.011719 37.632812 A 1.0001 1.0001 0 0 0 26.738281 37.714844 C 25.676291 37.994014 24.815339 38 24.5 38 C 24.08096 38 23.920339 37.936217 23.931641 37.960938 C 23.920961 37.893237 23.905649 37.755807 23.949219 37.480469 L 23.949219 37.478516 C 23.980319 37.285489 24.28566 36.516532 24.796875 35.621094 C 25.308535 34.724876 26.010199 33.638119 26.798828 32.484375 C 27.494096 31.467216 28.26694 30.397316 29.03125 29.347656 A 1.0001 1.0001 0 0 0 29.208984 29.097656 C 30.11741 27.854109 31.015298 26.646921 31.800781 25.599609 A 1.0001 1.0001 0 0 0 31.037109 23.988281 A 1.0001 1.0001 0 0 0 30.199219 24.400391 C 30.053308 24.594938 29.870237 24.845804 29.716797 25.050781 C 29.893649 23.207323 30 21.50765 30 19.523438 C 30 14.071396 28.406664 10.466478 25.748047 8.5097656 C 24.418738 7.5314093 22.878717 6.9908586 21.226562 6.7890625 C 20.983489 6.7593732 20.73388 6.7516128 20.486328 6.7363281 C 21.791172 6.2734368 23.287759 6 25 6 z M 19.894531 8.7011719 C 21.696855 8.739515 23.293979 9.1874765 24.5625 10.121094 C 26.592133 11.614881 28 14.451479 28 19.523438 C 28 22.549025 27.768594 24.816155 27.355469 28.248047 C 26.602298 29.283928 25.842264 30.340418 25.148438 31.355469 C 24.341942 32.53535 23.616793 33.656546 23.060547 34.630859 C 22.504301 35.605173 22.101456 36.368753 21.974609 37.164062 C 21.898979 37.638706 21.885162 38.061365 21.982422 38.474609 C 22.079702 38.887854 22.326217 39.292415 22.652344 39.542969 C 23.304609 40.044076 23.963667 40 24.5 40 C 24.716551 40 25.328502 39.982727 26.097656 39.871094 C 26.062027 40.623988 26.039446 41.28873 26.023438 42 L 12 42 L 12 36.716797 A 1.0001 1.0001 0 0 0 12 36.332031 L 12 26.205078 A 1.0001 1.0001 0 0 0 12 25.966797 L 12 25.609375 C 12 23.985598 12.07728 22.29347 12.248047 20.615234 C 14.631972 20.826276 16.908203 21 16.908203 21 C 17.504203 20.689 18 20.341453 18 19.564453 C 18 18.729453 17.479203 18.333 16.908203 18 C 16.908203 18 15.606098 18.231639 14.822266 18.369141 C 15.534074 17.820631 16 16.968232 16 16 C 16 14.654343 15.109 13.528794 13.888672 13.148438 C 14.550183 11.659354 15.642941 10.076457 16.738281 9.0078125 C 17.83852 8.7910828 18.899241 8.6799978 19.894531 8.7011719 z M 23 13 C 21.343 13 20 14.343 20 16 C 20 17.657 21.343 19 23 19 C 24.657 19 26 17.657 26 16 C 26 14.343 24.657 13 23 13 z M 22.435547 14.363281 C 22.655547 14.356781 22.845578 14.427578 22.955078 14.580078 C 23.173078 14.885078 22.98425 15.395703 22.53125 15.720703 C 22.07825 16.045703 21.533453 16.062812 21.314453 15.757812 C 21.095453 15.452813 21.285281 14.942188 21.738281 14.617188 C 21.964781 14.454687 22.215547 14.369781 22.435547 14.363281 z M 11.900391 14.53125 A 1.0001 1.0001 0 0 0 12.994141 14.691406 C 13.112838 14.998981 12.935964 15.430345 12.53125 15.720703 C 12.07825 16.045703 11.533453 16.062812 11.314453 15.757812 C 11.095453 15.452813 11.285281 14.942188 11.738281 14.617188 C 11.790553 14.579686 11.846335 14.560505 11.900391 14.53125 z M 10 29 L 10 36.224609 C 9.0219259 37.632467 8.370462 37.968648 8.3105469 37.994141 C 8.2753341 37.947017 8.2203755 37.866348 8.1816406 37.751953 C 8.0124507 37.252305 7.8702615 35.290558 8.3476562 33.166016 C 8.6514841 31.813896 9.1792885 30.359774 10 29 z"/></svg>